<svg width="24" height="24" viewBox="0 0 24 24" fill="none" xmlns="http://www.w3.org/2000/svg">
<g clip-path="url(#clip0_8_277)">
<path d="M16.3687 7.07946C15.5756 6.37378 14.6232 5.87088 13.5932 5.61384C12.5632 5.35679 11.4862 5.35327 10.4545 5.60357C10.6366 5.84732 11.8339 7.47589 12.9134 9.46072C15.2571 8.58214 16.2482 7.24821 16.3687 7.07946ZM13.125 13.0929C9.40982 14.3866 8.07321 16.9661 7.95536 17.2071C9.07232 18.0777 10.4759 18.5973 12 18.5973C12.9134 18.5973 13.7839 18.4125 14.5741 18.075C14.475 17.4964 14.0946 15.4821 13.1679 13.0768L13.125 13.0929ZM14.4027 12.7741C15.2652 15.142 15.6161 17.0705 15.683 17.4723C17.1616 16.4732 18.2143 14.8902 18.5063 13.0554C18.2813 12.9857 16.4679 12.4446 14.4027 12.7741ZM12 0C5.37321 0 0 5.37321 0 12C0 18.6268 5.37321 24 12 24C18.6268 24 24 18.6268 24 12C24 5.37321 18.6268 0 12 0ZM12 19.7143C7.74643 19.7143 4.28571 16.2536 4.28571 12C4.28571 7.74643 7.74643 4.28571 12 4.28571C16.2536 4.28571 19.7143 7.74643 19.7143 12C19.7143 16.2536 16.2536 19.7143 12 19.7143ZM13.4223 10.4411C13.575 10.7545 13.7223 11.0732 13.8589 11.3946C13.9071 11.5071 13.9554 11.6196 14.0009 11.7348C16.192 11.4589 18.3723 11.9009 18.5893 11.9464C18.5759 10.3902 18.0187 8.9625 17.1027 7.84018C16.9607 8.03036 15.8571 9.44732 13.4223 10.4411ZM11.6411 9.85714C10.5482 7.91518 9.37232 6.28393 9.19821 6.04554C7.35536 6.91607 5.97589 8.61429 5.55 10.658C5.84464 10.6634 8.56071 10.6768 11.6411 9.85714ZM12.4607 12.067C12.5464 12.0402 12.6321 12.0134 12.7205 11.9893C12.5545 11.6143 12.375 11.2393 12.1875 10.8723C8.89821 11.858 5.70268 11.8152 5.41607 11.8098C5.41339 11.8768 5.41339 11.9438 5.41339 12.0107C5.41339 13.7036 6.05357 15.2491 7.10625 16.417C7.25357 16.1598 9.06161 13.1652 12.4607 12.067Z" fill="#2C363F"/>
</g>
<defs>
<clipPath id="clip0_8_277">
<rect width="24" height="24" fill="white"/>
</clipPath>
</defs>
</svg>
