<svg width="82" height="30" viewBox="0 0 82 30" fill="none" xmlns="http://www.w3.org/2000/svg">
<path d="M8.088 25.288C6.968 25.288 5.912 25.088 4.92 24.688C3.944 24.272 3.096 23.688 2.376 22.936C1.672 22.184 1.144 21.296 0.792 20.272L3.84 18.904C4.288 19.88 4.904 20.648 5.688 21.208C6.488 21.768 7.368 22.048 8.328 22.048C8.84 22.048 9.28 21.968 9.648 21.808C10.016 21.648 10.304 21.432 10.512 21.16C10.72 20.872 10.824 20.536 10.824 20.152C10.824 19.736 10.696 19.384 10.44 19.096C10.184 18.792 9.784 18.552 9.24 18.376L5.736 17.224C4.312 16.76 3.24 16.104 2.52 15.256C1.8 14.392 1.44 13.36 1.44 12.16C1.44 11.104 1.696 10.176 2.208 9.376C2.736 8.576 3.464 7.952 4.392 7.504C5.336 7.056 6.416 6.832 7.632 6.832C8.704 6.832 9.696 7.016 10.608 7.384C11.52 7.752 12.304 8.272 12.96 8.944C13.632 9.616 14.136 10.424 14.472 11.368L11.448 12.736C11.112 11.904 10.608 11.256 9.936 10.792C9.264 10.312 8.496 10.072 7.632 10.072C7.136 10.072 6.696 10.152 6.312 10.312C5.928 10.472 5.632 10.704 5.424 11.008C5.216 11.296 5.112 11.632 5.112 12.016C5.112 12.432 5.248 12.8 5.52 13.12C5.792 13.424 6.2 13.664 6.744 13.84L10.176 14.944C11.616 15.408 12.688 16.056 13.392 16.888C14.112 17.72 14.472 18.736 14.472 19.936C14.472 20.976 14.2 21.904 13.656 22.72C13.112 23.52 12.36 24.152 11.4 24.616C10.456 25.064 9.352 25.288 8.088 25.288ZM23.3631 25.288C22.0671 25.288 20.8831 24.992 19.8111 24.4C18.7551 23.808 17.9071 23 17.2671 21.976C16.6431 20.936 16.3311 19.76 16.3311 18.448C16.3311 17.12 16.6431 15.944 17.2671 14.92C17.9071 13.896 18.7551 13.088 19.8111 12.496C20.8831 11.904 22.0671 11.608 23.3631 11.608C24.6591 11.608 25.8351 11.904 26.8911 12.496C27.9471 13.088 28.7871 13.896 29.4111 14.92C30.0511 15.944 30.3711 17.12 30.3711 18.448C30.3711 19.76 30.0511 20.936 29.4111 21.976C28.7871 23 27.9471 23.808 26.8911 24.4C25.8351 24.992 24.6591 25.288 23.3631 25.288ZM23.3631 22.048C24.0191 22.048 24.5871 21.896 25.0671 21.592C25.5631 21.288 25.9471 20.864 26.2191 20.32C26.5071 19.776 26.6511 19.152 26.6511 18.448C26.6511 17.744 26.5071 17.128 26.2191 16.6C25.9471 16.056 25.5631 15.632 25.0671 15.328C24.5871 15.008 24.0191 14.848 23.3631 14.848C22.7071 14.848 22.1311 15.008 21.6351 15.328C21.1391 15.632 20.7471 16.056 20.4591 16.6C20.1871 17.128 20.0511 17.744 20.0511 18.448C20.0511 19.152 20.1871 19.776 20.4591 20.32C20.7471 20.864 21.1391 21.288 21.6351 21.592C22.1311 21.896 22.7071 22.048 23.3631 22.048ZM32.4919 25V11.896H35.8519V14.488L35.6599 13.912C35.9639 13.128 36.4519 12.552 37.1239 12.184C37.8119 11.8 38.6119 11.608 39.5239 11.608C40.5159 11.608 41.3799 11.816 42.1159 12.232C42.8679 12.648 43.4519 13.232 43.8679 13.984C44.2839 14.72 44.4919 15.584 44.4919 16.576V25H40.8919V17.344C40.8919 16.832 40.7879 16.392 40.5799 16.024C40.3879 15.656 40.1079 15.368 39.7399 15.16C39.3879 14.952 38.9719 14.848 38.4919 14.848C38.0279 14.848 37.6119 14.952 37.2439 15.16C36.8759 15.368 36.5879 15.656 36.3799 16.024C36.1879 16.392 36.0919 16.832 36.0919 17.344V25H32.4919ZM50.9151 25.288C49.9711 25.288 49.1551 25.136 48.4671 24.832C47.7791 24.528 47.2511 24.096 46.8831 23.536C46.5151 22.96 46.3311 22.28 46.3311 21.496C46.3311 20.76 46.4991 20.112 46.8351 19.552C47.1711 18.976 47.6831 18.496 48.3711 18.112C49.0751 17.728 49.9471 17.456 50.9871 17.296L54.9951 16.648V19.288L51.6351 19.888C51.1231 19.984 50.7311 20.152 50.4591 20.392C50.1871 20.616 50.0511 20.944 50.0511 21.376C50.0511 21.776 50.2031 22.088 50.5071 22.312C50.8111 22.536 51.1871 22.648 51.6351 22.648C52.2271 22.648 52.7471 22.52 53.1951 22.264C53.6431 22.008 53.9871 21.664 54.2271 21.232C54.4831 20.784 54.6111 20.296 54.6111 19.768V16.36C54.6111 15.864 54.4111 15.448 54.0111 15.112C53.6271 14.776 53.0991 14.608 52.4271 14.608C51.7871 14.608 51.2191 14.784 50.7231 15.136C50.2431 15.488 49.8911 15.952 49.6671 16.528L46.7871 15.16C47.0431 14.424 47.4511 13.792 48.0111 13.264C48.5711 12.736 49.2431 12.328 50.0271 12.04C50.8111 11.752 51.6671 11.608 52.5951 11.608C53.6991 11.608 54.6751 11.808 55.5231 12.208C56.3711 12.608 57.0271 13.168 57.4911 13.888C57.9711 14.592 58.2111 15.416 58.2111 16.36V25H54.8511V22.888L55.6671 22.744C55.2831 23.32 54.8591 23.8 54.3951 24.184C53.9311 24.552 53.4111 24.824 52.8351 25C52.2591 25.192 51.6191 25.288 50.9151 25.288ZM60.8513 25V6.832H64.4513V25H60.8513ZM67.0856 25V11.896H70.6856V25H67.0856ZM67.0856 10.72V7.12H70.6856V10.72H67.0856ZM75.096 25V21.4H78.696V25H75.096Z" fill="#2C363F"/>
</svg>
