<svg width="45" height="45" viewBox="0 0 45 45" fill="none" xmlns="http://www.w3.org/2000/svg">
<path d="M3.8177 8.90538C6.97345 5.4842 11.7487 3.75 18.0085 3.75H20.2578V10.0908L18.4493 10.4529C15.3678 11.0692 13.2242 12.2816 12.0771 14.0608C11.4785 15.0192 11.1391 16.1167 11.0919 17.2458H18.0085C18.605 17.2458 19.1772 17.4827 19.599 17.9046C20.0208 18.3264 20.2578 18.8985 20.2578 19.4951V35.2401C20.2578 37.7211 18.2402 39.7387 15.7592 39.7387H2.26344C1.66689 39.7387 1.09477 39.5017 0.672946 39.0799C0.251121 38.6581 0.0141432 38.0859 0.0141432 37.4894V26.2429L0.0208911 19.6772C0.000647464 19.4276 -0.426718 13.5119 3.8177 8.90538ZM40.5014 39.7387H27.0057C26.4091 39.7387 25.837 39.5017 25.4152 39.0799C24.9933 38.6581 24.7564 38.0859 24.7564 37.4894V26.2429L24.7631 19.6772C24.7429 19.4276 24.3155 13.5119 28.5599 8.90538C31.7157 5.4842 36.4909 3.75 42.7507 3.75H45V10.0908L43.1916 10.4529C40.11 11.0692 37.9665 12.2816 36.8193 14.0608C36.2208 15.0192 35.8813 16.1167 35.8341 17.2458H42.7507C43.3473 17.2458 43.9194 17.4827 44.3412 17.9046C44.763 18.3264 45 18.8985 45 19.4951V35.2401C45 37.7211 42.9824 39.7387 40.5014 39.7387Z" fill="#F2F5EA"/>
</svg>
