<svg width="30" height="30" viewBox="0 0 30 30" fill="none" xmlns="http://www.w3.org/2000/svg">
<path d="M14.9962 9.99787C12.2419 9.99787 9.99412 12.2456 9.99412 15C9.99412 17.7544 12.2419 20.0021 14.9962 20.0021C17.7506 20.0021 19.9984 17.7544 19.9984 15C19.9984 12.2456 17.7506 9.99787 14.9962 9.99787ZM29.9989 15C29.9989 12.9286 30.0176 10.876 29.9013 8.80832C29.785 6.40669 29.2371 4.27525 27.4809 2.51907C25.721 0.759128 23.5933 0.215011 21.1917 0.098682C19.1203 -0.0176466 17.0676 0.00111617 15 0.00111617C12.9286 0.00111617 10.876 -0.0176466 8.80832 0.098682C6.40669 0.215011 4.27525 0.762881 2.51907 2.51907C0.759128 4.27901 0.215011 6.40669 0.098682 8.80832C-0.0176466 10.8797 0.00111617 12.9324 0.00111617 15C0.00111617 17.0676 -0.0176466 19.124 0.098682 21.1917C0.215011 23.5933 0.762881 25.7247 2.51907 27.4809C4.27901 29.2409 6.40669 29.785 8.80832 29.9013C10.8797 30.0176 12.9324 29.9989 15 29.9989C17.0714 29.9989 19.124 30.0176 21.1917 29.9013C23.5933 29.785 25.7247 29.2371 27.4809 27.4809C29.2409 25.721 29.785 23.5933 29.9013 21.1917C30.0214 19.124 29.9989 17.0714 29.9989 15ZM14.9962 22.6964C10.7371 22.6964 7.2998 19.2591 7.2998 15C7.2998 10.7409 10.7371 7.30355 14.9962 7.30355C19.2554 7.30355 22.6927 10.7409 22.6927 15C22.6927 19.2591 19.2554 22.6964 14.9962 22.6964ZM23.0079 8.7858C22.0135 8.7858 21.2104 7.98276 21.2104 6.98834C21.2104 5.99392 22.0135 5.19087 23.0079 5.19087C24.0023 5.19087 24.8054 5.99392 24.8054 6.98834C24.8057 7.22447 24.7594 7.45834 24.6692 7.67655C24.5789 7.89476 24.4465 8.09303 24.2796 8.26C24.1126 8.42697 23.9143 8.55936 23.6961 8.64958C23.4779 8.73981 23.244 8.7861 23.0079 8.7858Z" fill="#2C363F"/>
</svg>
