<svg width="30" height="30" viewBox="0 0 30 30" fill="none" xmlns="http://www.w3.org/2000/svg">
<path d="M20.4609 8.84933C19.4695 7.96723 18.279 7.3386 16.9915 7.01729C15.7039 6.69599 14.3577 6.69159 13.0681 7.00447C13.2958 7.30915 14.7924 9.34487 16.1417 11.8259C19.0714 10.7277 20.3103 9.06027 20.4609 8.84933ZM16.4062 16.3661C11.7623 17.9833 10.0915 21.2076 9.9442 21.5089C11.3404 22.5971 13.0949 23.2467 15 23.2467C16.1417 23.2467 17.2299 23.0156 18.2176 22.5938C18.0938 21.8705 17.6183 19.3527 16.4598 16.346L16.4062 16.3661ZM18.0033 15.9676C19.0815 18.9275 19.5201 21.3382 19.6038 21.8404C21.452 20.5915 22.7679 18.6127 23.1328 16.3192C22.8516 16.2321 20.5848 15.5558 18.0033 15.9676ZM15 0C6.71652 0 0 6.71652 0 15C0 23.2835 6.71652 30 15 30C23.2835 30 30 23.2835 30 15C30 6.71652 23.2835 0 15 0ZM15 24.6429C9.68304 24.6429 5.35714 20.317 5.35714 15C5.35714 9.68304 9.68304 5.35714 15 5.35714C20.317 5.35714 24.6429 9.68304 24.6429 15C24.6429 20.317 20.317 24.6429 15 24.6429ZM16.7779 13.0513C16.9688 13.4431 17.1529 13.8415 17.3237 14.2433C17.3839 14.3839 17.4442 14.5246 17.5011 14.6685C20.24 14.3237 22.9654 14.8761 23.2366 14.933C23.2199 12.9877 22.5234 11.2031 21.3783 9.80022C21.2009 10.0379 19.8214 11.8092 16.7779 13.0513ZM14.5513 12.3214C13.1853 9.89397 11.7154 7.85491 11.4978 7.55692C9.1942 8.64509 7.46987 10.7679 6.9375 13.3225C7.3058 13.3292 10.7009 13.346 14.5513 12.3214ZM15.5759 15.0837C15.683 15.0502 15.7902 15.0167 15.9007 14.9866C15.6931 14.5179 15.4688 14.0491 15.2344 13.5904C11.1228 14.8225 7.12835 14.769 6.77009 14.7623C6.76674 14.846 6.76674 14.9297 6.76674 15.0134C6.76674 17.1295 7.56696 19.0614 8.88281 20.5212C9.06696 20.1998 11.327 16.4565 15.5759 15.0837Z" fill="#2C363F"/>
</svg>
