<svg width="30" height="26" viewBox="0 0 30 26" fill="none" xmlns="http://www.w3.org/2000/svg">
<path d="M30 3.66973C28.8968 4.15858 27.7116 4.48889 26.4657 4.63819C27.7513 3.86896 28.713 2.65828 29.1716 1.23205C27.9638 1.94946 26.6419 2.45445 25.2634 2.72504C24.3364 1.73526 23.1085 1.07921 21.7704 0.858762C20.4324 0.638311 19.059 0.865788 17.8634 1.50588C16.6679 2.14596 15.7171 3.16285 15.1588 4.39866C14.6004 5.63447 14.4656 7.02005 14.7754 8.3403C12.328 8.21742 9.93389 7.58131 7.74829 6.47327C5.5627 5.36522 3.63451 3.80999 2.08888 1.90852C1.56038 2.82017 1.2565 3.87716 1.2565 5.00286C1.25591 6.01624 1.50546 7.0141 1.98302 7.9079C2.46057 8.8017 3.15136 9.56382 3.9941 10.1266C3.01675 10.0955 2.06096 9.83143 1.20629 9.35633V9.4356C1.20619 10.8569 1.69783 12.2345 2.59779 13.3346C3.49775 14.4347 4.7506 15.1895 6.14375 15.471C5.2371 15.7164 4.28654 15.7525 3.36387 15.5767C3.75693 16.7997 4.52259 17.8691 5.55364 18.6353C6.5847 19.4015 7.82954 19.826 9.11389 19.8496C6.93363 21.5611 4.24102 22.4895 1.46922 22.4855C0.978219 22.4856 0.487637 22.4569 0 22.3996C2.81354 24.2086 6.08871 25.1687 9.43363 25.1649C20.7566 25.1649 26.9466 15.7868 26.9466 7.65326C26.9466 7.38901 26.94 7.12212 26.9281 6.85787C28.1322 5.98714 29.1715 4.90891 29.9974 3.67369L30 3.66973Z" fill="#2C363F"/>
</svg>
